<svg width="20" height="20" viewBox="0 0 20 20" fill="none" xmlns="http://www.w3.org/2000/svg">
<path opacity="0.2" d="M10 20C15.5228 20 20 15.5228 20 10C20 4.47715 15.5228 0 10 0C4.47715 0 0 4.47715 0 10C0 15.5228 4.47715 20 10 20Z" fill="#F3BA2F"/>
<path fill-rule="evenodd" clip-rule="evenodd" d="M7.90922 9.14058L10.0009 7.04985L12.0934 9.14228L13.3097 7.9251L10.0009 4.61548L6.692 7.92425L7.90922 9.14058ZM4.61523 10.0003L5.83201 8.78354L7.04879 10.0003L5.83201 11.217L4.61523 10.0003ZM10.0009 12.9512L7.90922 10.8596L6.6903 12.0751L6.692 12.0768L10.0009 15.3847L13.3097 12.0751L13.3106 12.0742L12.0934 10.8588L10.0009 12.9512ZM12.9509 10.0006L14.1677 8.78384L15.3845 10.0006L14.1677 11.2173L12.9509 10.0006ZM10.0009 8.76462L11.2351 9.99966H11.236L11.2351 10.0005L10.0009 11.2356L8.76665 10.0022L8.76495 9.99966L8.76665 9.99796L8.98271 9.78192L9.08818 9.67729L10.0009 8.76462Z" fill="#F3BA2F"/>
</svg>
