<svg width="20" height="20" viewBox="0 0 20 20" fill="none" xmlns="http://www.w3.org/2000/svg">
<path fill-rule="evenodd" clip-rule="evenodd" d="M6.25001 2.49992C6.01988 2.49992 5.83334 2.68646 5.83334 2.91658V4.16658H13.75C14.9006 4.16658 15.8333 5.09932 15.8333 6.24992V14.1666H17.0833C17.3135 14.1666 17.5 13.9801 17.5 13.7499V2.91658C17.5 2.68646 17.3135 2.49992 17.0833 2.49992H6.25001ZM15.8333 15.8333H17.0833C18.234 15.8333 19.1667 14.9005 19.1667 13.7499V2.91658C19.1667 1.766 18.234 0.833252 17.0833 0.833252H6.25001C5.09939 0.833252 4.16668 1.766 4.16668 2.91658V4.16658H2.91668C1.76608 4.16658 0.833344 5.09932 0.833344 6.24992V17.0833C0.833344 18.2338 1.76608 19.1666 2.91668 19.1666H13.75C14.9006 19.1666 15.8333 18.2338 15.8333 17.0833V15.8333ZM2.91668 5.83325C2.68656 5.83325 2.50001 6.0198 2.50001 6.24992V17.0833C2.50001 17.3134 2.68656 17.4999 2.91668 17.4999H13.75C13.9801 17.4999 14.1667 17.3134 14.1667 17.0833V6.24992C14.1667 6.0198 13.9801 5.83325 13.75 5.83325H2.91668Z" fill="#878491"/>
</svg>
